# xmcd CD database file generated by RipIT.
#
# Track frame offsets:
#	150
#	73450
#	99448
#	125203
#	150355
#	156565
#	164290
#	242016
#	280196
#	296862
#
# Disc length: 4105 seconds
#
# Revision: 1
# Processed by: cddbd v1.5.1PL2 Copyright (c) Steve Scherf et al.
# Submitted via: RipIT 3.4 www.suwald.com/ripit/ripit.html at Sun Apr 9 07:56:08 CEST 2006.
#
DISCID=9710070a
DTITLE=Archive - You All Look The Same To Me
DYEAR=2002
DGENRE=Trip-Hop
TTITLE0=Again
TTITLE1=Numb
TTITLE2=Meon
TTITLE3=Goodbye
TTITLE4=Now And Then
TTITLE5=Seamless
TTITLE6=Finding It So Hard
TTITLE7=Fool
TTITLE8=Hate
TTITLE9=Need
EXTD=
EXTT0=
EXTT1=
EXTT2=
EXTT3=
EXTT4=
EXTT5=
EXTT6=
EXTT7=
EXTT8=
EXTT9=
PLAYORDER=
